<svg xmlns="http://www.w3.org/2000/svg" width="434" height="126" viewBox="0 0 434 126"><g transform="translate(-10 -384)"><path d="M8,0H30a8,8,0,0,1,8,8V87a0,0,0,0,1,0,0H0a0,0,0,0,1,0,0V8A8,8,0,0,1,8,0Z" transform="translate(10 423)" fill="#ebebeb"/><path d="M8,0H30a8,8,0,0,1,8,8V63a0,0,0,0,1,0,0H0a0,0,0,0,1,0,0V8A8,8,0,0,1,8,0Z" transform="translate(54 447)" fill="#ebebeb"/><path d="M8,0H30a8,8,0,0,1,8,8V87a0,0,0,0,1,0,0H0a0,0,0,0,1,0,0V8A8,8,0,0,1,8,0Z" transform="translate(98 423)" fill="#ebebeb"/><path d="M8,0H30a8,8,0,0,1,8,8V126a0,0,0,0,1,0,0H0a0,0,0,0,1,0,0V8A8,8,0,0,1,8,0Z" transform="translate(142 384)" fill="#ff8067"/><path d="M8,0H30a8,8,0,0,1,8,8V32a0,0,0,0,1,0,0H0a0,0,0,0,1,0,0V8A8,8,0,0,1,8,0Z" transform="translate(186 478)" fill="#ebebeb"/><path d="M8,0H30a8,8,0,0,1,8,8V87a0,0,0,0,1,0,0H0a0,0,0,0,1,0,0V8A8,8,0,0,1,8,0Z" transform="translate(230 423)" fill="#ebebeb"/><path d="M8,0H30a8,8,0,0,1,8,8V68a0,0,0,0,1,0,0H0a0,0,0,0,1,0,0V8A8,8,0,0,1,8,0Z" transform="translate(274 442)" fill="#ebebeb"/><path d="M8,0H30a8,8,0,0,1,8,8V87a0,0,0,0,1,0,0H0a0,0,0,0,1,0,0V8A8,8,0,0,1,8,0Z" transform="translate(318 423)" fill="#ebebeb"/><path d="M8,0H30a8,8,0,0,1,8,8V111a0,0,0,0,1,0,0H0a0,0,0,0,1,0,0V8A8,8,0,0,1,8,0Z" transform="translate(362 399)" fill="#ebebeb"/><path d="M8,0H30a8,8,0,0,1,8,8V68a0,0,0,0,1,0,0H0a0,0,0,0,1,0,0V8A8,8,0,0,1,8,0Z" transform="translate(406 442)" fill="#ebebeb"/></g></svg>