<svg xmlns="http://www.w3.org/2000/svg" width="89.969" height="77.9" viewBox="0 0 89.969 77.9"><g transform="translate(-7.031 -8.6)"><path d="M50.9,58.5A22.6,22.6,0,0,1,70.8,36.1a27.1,27.1,0,0,1,4-.4,23.976,23.976,0,0,1,11.7,3.5,17.216,17.216,0,0,0-1.1-15.1c-3.2-5.3-9.3-8.6-16.2-8.6-6.3,0-12.1,2.8-15.3,7.6l-3,4.2-2.8-4.2c-3.2-4.8-9-7.6-15.3-7.6-6.9,0-13,3.3-16.2,8.6C9.6,35.8,18.7,47.3,29.7,58,34.2,62.5,45.6,72.4,51,76.9c1.4-1.1,3.1-2.7,5.1-4.4A20.855,20.855,0,0,1,50.9,58.5Zm10.5,19c-4.1,3.5-7.5,6.4-8.2,7l-2.3,2-2.1-2c-3.4-2.8-18.6-15.8-24.1-21.1C17.2,56.1-.4,38.8,10.5,20.7,15,13.1,23.3,8.6,32.7,8.6A26.383,26.383,0,0,1,51,15.8,25.519,25.519,0,0,1,69.3,8.6,25.719,25.719,0,0,1,91.6,20.7c4.9,8.3,4,16.5.6,23.5A21.635,21.635,0,0,1,97,58a22.45,22.45,0,0,1-9.7,18.4l-.1.1a22.306,22.306,0,0,1-13.6,4.6A21.886,21.886,0,0,1,61.4,77.5Zm12.5-2.4a17,17,0,0,0,.1-34h-.1a17,17,0,0,0-.2,34Z"/><path d="M73.4,55.7V52.3a1.68,1.68,0,0,0-1.5,1.8A1.561,1.561,0,0,0,73.4,55.7Zm3.1,6.9a2,2,0,0,0-.2-.9,1.946,1.946,0,0,0-1.3-1v3.7a1.381,1.381,0,0,0,1.3-1A1.345,1.345,0,0,0,76.5,62.6ZM73.4,48.7V47.5a.632.632,0,0,1,.7-.7c.6,0,.7.3.7.7v1.2c1.7,0,4.8.6,4.8,2.8a1.88,1.88,0,0,1-1.8,1.9c-1,0-1.8-1-3-1v3.7c3,.9,6.1,2.2,6.1,5.9a6.285,6.285,0,0,1-6.1,6.3v1.2a.684.684,0,0,1-.7.7c-.6,0-.7-.3-.7-.7v-1c-1.8-.2-6.1-.6-6.1-3.1a2.111,2.111,0,0,1,1.9-2.2c.9,0,2.2,1.2,4.2,1.2V60.2c-4.5-1.3-6-3-6-5.4C67.4,51.3,70.1,49,73.4,48.7Z"/><path d="M72.8,53.8v.3A.187.187,0,0,1,72.8,53.8Z"/></g></svg>